<svg xmlns="http://www.w3.org/2000/svg" xmlns:xlink="http://www.w3.org/1999/xlink" contentStyleType="text/css" data-diagram-type="DESCRIPTION" height="1358px" preserveAspectRatio="none" style="width:1257px;height:1358px;background:#FFFFFF;" version="1.1" viewBox="0 0 1257 1358" width="1257px" zoomAndPan="magnify"><defs/><g><!--cluster ?????????? ????????--><g class="cluster" data-entity=".......... ........" data-source-line="5" data-uid="ent0003" id="cluster_.......... ........"><rect fill="none" height="875" rx="2.5" ry="2.5" style="stroke:#181818;stroke-width:1;" width="1095.73" x="156.1" y="213.26"/><text fill="#000000" font-family="sans-serif" font-size="14" font-weight="bold" lengthAdjust="spacing" textLength="175.793" x="616.0685" y="228.2551">&#1054;&#1088;&#1075;&#1072;&#1085;&#1072;&#1081;&#1079;&#1077;&#1088; &#1088;&#1077;&#1094;&#1077;&#1087;&#1090;&#1086;&#1074;</text></g><!--entity AddRecipe--><g class="entity" data-entity="AddRecipe" data-source-line="6" data-uid="ent0004" id="entity_AddRecipe"><ellipse cx="287.858" cy="301.2616" fill="#F1F1F1" rx="115.758" ry="25.5516" style="stroke:#181818;stroke-width:0.5;"/><text fill="#000000" font-family="sans-serif" font-size="14" lengthAdjust="spacing" textLength="210.2803" x="182.7179" y="305.91">&#1044;&#1086;&#1073;&#1072;&#1074;&#1083;&#1077;&#1085;&#1080;&#1077; &#1085;&#1086;&#1074;&#1086;&#1075;&#1086; &#1088;&#1077;&#1094;&#1077;&#1087;&#1090;&#1072;</text></g><!--entity EditRecipe--><g class="entity" data-entity="EditRecipe" data-source-line="7" data-uid="ent0005" id="entity_EditRecipe"><ellipse cx="287.8595" cy="470.2639" fill="#F1F1F1" rx="105.5195" ry="23.5039" style="stroke:#181818;stroke-width:0.5;"/><text fill="#000000" font-family="sans-serif" font-size="14" lengthAdjust="spacing" textLength="188.1523" x="193.7833" y="474.9123">&#1056;&#1077;&#1076;&#1072;&#1082;&#1090;&#1080;&#1088;&#1086;&#1074;&#1072;&#1085;&#1080;&#1077; &#1088;&#1077;&#1094;&#1077;&#1087;&#1090;&#1072;</text></g><!--entity DeleteRecipe--><g class="entity" data-entity="DeleteRecipe" data-source-line="8" data-uid="ent0006" id="entity_DeleteRecipe"><ellipse cx="287.8553" cy="639.2571" fill="#F1F1F1" rx="82.7853" ry="18.9571" style="stroke:#181818;stroke-width:0.5;"/><text fill="#000000" font-family="sans-serif" font-size="14" lengthAdjust="spacing" textLength="137.1973" x="219.2567" y="643.9055">&#1059;&#1076;&#1072;&#1083;&#1077;&#1085;&#1080;&#1077; &#1088;&#1077;&#1094;&#1077;&#1087;&#1090;&#1072;</text></g><!--entity ViewRecipes--><g class="entity" data-entity="ViewRecipes" data-source-line="9" data-uid="ent0007" id="entity_ViewRecipes"><ellipse cx="287.8649" cy="718.257" fill="#F1F1F1" rx="111.5349" ry="24.707" style="stroke:#181818;stroke-width:0.5;"/><text fill="#000000" font-family="sans-serif" font-size="14" lengthAdjust="spacing" textLength="201.1953" x="187.2672" y="722.9054">&#1055;&#1088;&#1086;&#1089;&#1084;&#1086;&#1090;&#1088; &#1089;&#1087;&#1080;&#1089;&#1082;&#1072; &#1088;&#1077;&#1094;&#1077;&#1087;&#1090;&#1086;&#1074;</text></g><!--entity ViewRecipeDetails--><g class="entity" data-entity="ViewRecipeDetails" data-source-line="10" data-uid="ent0008" id="entity_ViewRecipeDetails"><ellipse cx="287.8591" cy="888.2638" fill="#F1F1F1" rx="112.8191" ry="24.9638" style="stroke:#181818;stroke-width:0.5;"/><text fill="#000000" font-family="sans-serif" font-size="14" lengthAdjust="spacing" textLength="203.9639" x="185.8772" y="892.9123">&#1055;&#1088;&#1086;&#1089;&#1084;&#1086;&#1090;&#1088; &#1076;&#1077;&#1090;&#1072;&#1083;&#1077;&#1081; &#1088;&#1077;&#1094;&#1077;&#1087;&#1090;&#1072;</text></g><!--entity ValidateData--><g class="entity" data-entity="ValidateData" data-source-line="12" data-uid="ent0009" id="entity_ValidateData"><ellipse cx="686.237" cy="362.2574" fill="#F1F1F1" rx="114.637" ry="25.3274" style="stroke:#181818;stroke-width:0.5;"/><text fill="#000000" font-family="sans-serif" font-size="14" lengthAdjust="spacing" textLength="207.874" x="582.3" y="366.9058">&#1042;&#1072;&#1083;&#1080;&#1076;&#1072;&#1094;&#1080;&#1103; &#1076;&#1072;&#1085;&#1085;&#1099;&#1093; &#1088;&#1077;&#1094;&#1077;&#1087;&#1090;&#1072;</text></g><!--entity UploadImages--><g class="entity" data-entity="UploadImages" data-source-line="13" data-uid="ent0010" id="entity_UploadImages"><ellipse cx="686.2404" cy="275.2601" fill="#F1F1F1" rx="121.6504" ry="26.7301" style="stroke:#181818;stroke-width:0.5;"/><text fill="#000000" font-family="sans-serif" font-size="14" lengthAdjust="spacing" textLength="222.8721" x="574.8044" y="279.9085">&#1047;&#1072;&#1075;&#1088;&#1091;&#1079;&#1082;&#1072; &#1080;&#1079;&#1086;&#1073;&#1088;&#1072;&#1078;&#1077;&#1085;&#1080;&#1081; &#1073;&#1083;&#1102;&#1076;&#1072;</text></g><!--entity AutoSave--><g class="entity" data-entity="AutoSave" data-source-line="14" data-uid="ent0011" id="entity_AutoSave"><ellipse cx="686.2382" cy="448.2576" fill="#F1F1F1" rx="113.9882" ry="25.1976" style="stroke:#181818;stroke-width:0.5;"/><text fill="#000000" font-family="sans-serif" font-size="14" lengthAdjust="spacing" textLength="206.4795" x="582.9984" y="452.9061">&#1040;&#1074;&#1090;&#1086;&#1089;&#1086;&#1093;&#1088;&#1072;&#1085;&#1077;&#1085;&#1080;&#1077; &#1080;&#1079;&#1084;&#1077;&#1085;&#1077;&#1085;&#1080;&#1081;</text></g><!--entity SearchRecipes--><g class="entity" data-entity="SearchRecipes" data-source-line="15" data-uid="ent0012" id="entity_SearchRecipes"><ellipse cx="686.2419" cy="526.2564" fill="#F1F1F1" rx="74.9319" ry="17.3864" style="stroke:#181818;stroke-width:0.5;"/><text fill="#000000" font-family="sans-serif" font-size="14" lengthAdjust="spacing" textLength="118.5625" x="626.9606" y="530.9048">&#1055;&#1086;&#1080;&#1089;&#1082; &#1088;&#1077;&#1094;&#1077;&#1087;&#1090;&#1086;&#1074;</text></g><!--entity FilterByCategory--><g class="entity" data-entity="FilterByCategory" data-source-line="16" data-uid="ent0013" id="entity_FilterByCategory"><ellipse cx="686.2405" cy="851.2581" fill="#F1F1F1" rx="112.9905" ry="24.9981" style="stroke:#181818;stroke-width:0.5;"/><text fill="#000000" font-family="sans-serif" font-size="14" lengthAdjust="spacing" textLength="204.333" x="584.074" y="855.9065">&#1060;&#1080;&#1083;&#1100;&#1090;&#1088;&#1072;&#1094;&#1080;&#1103; &#1087;&#1086; &#1082;&#1072;&#1090;&#1077;&#1075;&#1086;&#1088;&#1080;&#1103;&#1084;</text></g><!--entity FilterByIngredients--><g class="entity" data-entity="FilterByIngredients" data-source-line="17" data-uid="ent0014" id="entity_FilterByIngredients"><ellipse cx="686.2365" cy="764.2613" fill="#F1F1F1" rx="122.4565" ry="26.8913" style="stroke:#181818;stroke-width:0.5;"/><text fill="#000000" font-family="sans-serif" font-size="14" lengthAdjust="spacing" textLength="224.5879" x="573.9426" y="768.9097">&#1060;&#1080;&#1083;&#1100;&#1090;&#1088;&#1072;&#1094;&#1080;&#1103; &#1087;&#1086; &#1080;&#1085;&#1075;&#1088;&#1077;&#1076;&#1080;&#1077;&#1085;&#1090;&#1072;&#1084;</text></g><!--entity SortRecipes--><g class="entity" data-entity="SortRecipes" data-source-line="18" data-uid="ent0015" id="entity_SortRecipes"><ellipse cx="686.2382" cy="681.2636" fill="#F1F1F1" rx="93.4182" ry="21.0836" style="stroke:#181818;stroke-width:0.5;"/><text fill="#000000" font-family="sans-serif" font-size="14" lengthAdjust="spacing" textLength="161.4375" x="605.5194" y="685.9121">&#1057;&#1086;&#1088;&#1090;&#1080;&#1088;&#1086;&#1074;&#1082;&#1072; &#1088;&#1077;&#1094;&#1077;&#1087;&#1090;&#1086;&#1074;</text></g><!--entity AddToFavorites--><g class="entity" data-entity="AddToFavorites" data-source-line="19" data-uid="ent0016" id="entity_AddToFavorites"><ellipse cx="686.2354" cy="602.2551" fill="#F1F1F1" rx="103.9254" ry="23.1851" style="stroke:#181818;stroke-width:0.5;"/><text fill="#000000" font-family="sans-serif" font-size="14" lengthAdjust="spacing" textLength="184.6729" x="593.899" y="606.9035">&#1044;&#1086;&#1073;&#1072;&#1074;&#1083;&#1077;&#1085;&#1080;&#1077; &#1074; &#1080;&#1079;&#1073;&#1088;&#1072;&#1085;&#1085;&#1086;&#1077;</text></g><!--entity AddToShoppingList--><g class="entity" data-entity="AddToShoppingList" data-source-line="21" data-uid="ent0017" id="entity_AddToShoppingList"><ellipse cx="686.2418" cy="1035.2644" fill="#F1F1F1" rx="173.6218" ry="37.1244" style="stroke:#181818;stroke-width:0.5;"/><text fill="#000000" font-family="sans-serif" font-size="14" lengthAdjust="spacing" textLength="331.3721" x="520.5557" y="1039.9128">&#1044;&#1086;&#1073;&#1072;&#1074;&#1083;&#1077;&#1085;&#1080;&#1077; &#1080;&#1085;&#1075;&#1088;&#1077;&#1076;&#1080;&#1077;&#1085;&#1090;&#1086;&#1074; &#1074; &#1089;&#1087;&#1080;&#1089;&#1086;&#1082; &#1087;&#1086;&#1082;&#1091;&#1087;&#1086;&#1082;</text></g><!--entity ViewShoppingList--><g class="entity" data-entity="ViewShoppingList" data-source-line="22" data-uid="ent0018" id="entity_ViewShoppingList"><ellipse cx="287.8565" cy="803.2633" fill="#F1F1F1" rx="107.3165" ry="23.8633" style="stroke:#181818;stroke-width:0.5;"/><text fill="#000000" font-family="sans-serif" font-size="14" lengthAdjust="spacing" textLength="192.0625" x="191.8252" y="807.9117">&#1055;&#1088;&#1086;&#1089;&#1084;&#1086;&#1090;&#1088; &#1089;&#1087;&#1080;&#1089;&#1082;&#1072; &#1087;&#1086;&#1082;&#1091;&#1087;&#1086;&#1082;</text></g><!--entity ManageShoppingList--><g class="entity" data-entity="ManageShoppingList" data-source-line="23" data-uid="ent0019" id="entity_ManageShoppingList"><ellipse cx="686.2432" cy="937.2586" fill="#F1F1F1" rx="119.6432" ry="26.3286" style="stroke:#181818;stroke-width:0.5;"/><text fill="#000000" font-family="sans-serif" font-size="14" lengthAdjust="spacing" textLength="218.5928" x="576.9468" y="941.9071">&#1059;&#1087;&#1088;&#1072;&#1074;&#1083;&#1077;&#1085;&#1080;&#1077; &#1089;&#1087;&#1080;&#1089;&#1082;&#1086;&#1084; &#1087;&#1086;&#1082;&#1091;&#1087;&#1086;&#1082;</text></g><!--entity CalculateQuantities--><g class="entity" data-entity="CalculateQuantities" data-source-line="24" data-uid="ent0020" id="entity_CalculateQuantities"><ellipse cx="1102.3432" cy="1023.2566" fill="#F1F1F1" rx="133.4832" ry="29.0966" style="stroke:#181818;stroke-width:0.5;"/><text fill="#000000" font-family="sans-serif" font-size="14" lengthAdjust="spacing" textLength="247.9189" x="978.3838" y="1027.9051">&#1056;&#1072;&#1089;&#1095;&#1077;&#1090; &#1082;&#1086;&#1083;&#1080;&#1095;&#1077;&#1089;&#1090;&#1074;&#1072; &#1080;&#1085;&#1075;&#1088;&#1077;&#1076;&#1080;&#1077;&#1085;&#1090;&#1086;&#1074;</text></g><!--entity ConsolidateDuplicates--><g class="entity" data-entity="ConsolidateDuplicates" data-source-line="25" data-uid="ent0021" id="entity_ConsolidateDuplicates"><ellipse cx="1102.3409" cy="921.2562" fill="#F1F1F1" rx="110.2309" ry="24.4462" style="stroke:#181818;stroke-width:0.5;"/><text fill="#000000" font-family="sans-serif" font-size="14" lengthAdjust="spacing" textLength="198.3789" x="1003.1515" y="925.9046">&#1050;&#1086;&#1085;&#1089;&#1086;&#1083;&#1080;&#1076;&#1072;&#1094;&#1080;&#1103; &#1076;&#1091;&#1073;&#1083;&#1080;&#1082;&#1072;&#1090;&#1086;&#1074;</text></g><!--entity User--><g class="entity" data-entity="User" data-source-line="3" data-uid="ent0002" id="entity_User"><ellipse cx="57.5498" cy="696.7569" fill="#F1F1F1" rx="8" ry="8" style="stroke:#181818;stroke-width:0.5;"/><path d="M57.5498,704.7569 L57.5498,731.7569 M44.5498,712.7569 L70.5498,712.7569 M57.5498,731.7569 L44.5498,746.7569 M57.5498,731.7569 L70.5498,746.7569" fill="none" style="stroke:#181818;stroke-width:0.5;"/><text fill="#000000" font-family="sans-serif" font-size="14" lengthAdjust="spacing" textLength="103.0996" x="6" y="761.252">&#1055;&#1086;&#1083;&#1100;&#1079;&#1086;&#1074;&#1072;&#1090;&#1077;&#1083;&#1100;</text><text fill="#000000" font-family="sans-serif" font-size="14" font-style="italic" lengthAdjust="spacing" textLength="64.6748" x="25.2124" y="684.9551">&#171;Person&#187;</text></g><g class="entity" data-entity="GMN44" data-source-line="59" data-uid="ent0045" id="entity_GMN44"><path d="M586.69,96.86 L586.69,181.63 L346.49,278.87 L586.69,189.63 L586.69,197.6569 A0,0 0 0 0 586.69,197.6569 L785.7862,197.6569 A0,0 0 0 0 785.7862,197.6569 L785.7862,106.86 L775.7862,96.86 L586.69,96.86 A0,0 0 0 0 586.69,96.86" fill="#FEFFDD" style="stroke:#181818;stroke-width:0.5;"/><path d="M775.7862,96.86 L775.7862,106.86 L785.7862,106.86 L775.7862,96.86" fill="#FEFFDD" style="stroke:#181818;stroke-width:0.5;"/><text fill="#000000" font-family="sans-serif" font-size="13" font-weight="bold" lengthAdjust="spacing" textLength="80.1392" x="592.69" y="113.9269">&#1042;&#1082;&#1083;&#1102;&#1095;&#1072;&#1077;&#1090;:</text><text fill="#000000" font-family="sans-serif" font-size="13" lengthAdjust="spacing" textLength="143.7046" x="592.69" y="129.0597">- &#1042;&#1072;&#1083;&#1080;&#1076;&#1072;&#1094;&#1080;&#1102; &#1076;&#1072;&#1085;&#1085;&#1099;&#1093;</text><text fill="#000000" font-family="sans-serif" font-size="13" lengthAdjust="spacing" textLength="167.1465" x="592.69" y="144.1925">- &#1047;&#1072;&#1075;&#1088;&#1091;&#1079;&#1082;&#1091; &#1080;&#1079;&#1086;&#1073;&#1088;&#1072;&#1078;&#1077;&#1085;&#1080;&#1081;</text><text fill="#000000" font-family="sans-serif" font-size="13" font-weight="bold" lengthAdjust="spacing" textLength="77.7271" x="592.69" y="159.3253">&#1054;&#1087;&#1080;&#1089;&#1072;&#1085;&#1080;&#1077;:</text><text fill="#000000" font-family="sans-serif" font-size="13" lengthAdjust="spacing" textLength="178.0962" x="592.69" y="174.4581">&#1057;&#1086;&#1079;&#1076;&#1072;&#1085;&#1080;&#1077; &#1085;&#1086;&#1074;&#1086;&#1075;&#1086; &#1088;&#1077;&#1094;&#1077;&#1087;&#1090;&#1072;</text><text fill="#000000" font-family="sans-serif" font-size="13" lengthAdjust="spacing" textLength="160.8623" x="592.69" y="189.591">&#1089; &#1087;&#1086;&#1083;&#1085;&#1086;&#1081; &#1080;&#1085;&#1092;&#1086;&#1088;&#1084;&#1072;&#1094;&#1080;&#1077;&#1081;</text></g><g class="entity" data-entity="GMN47" data-source-line="68" data-uid="ent0048" id="entity_GMN47"><path d="M179.28,1103.86 L179.28,1204.6569 A0,0 0 0 0 179.28,1204.6569 L396.4353,1204.6569 A0,0 0 0 0 396.4353,1204.6569 L396.4353,1125.82 L584.08,1065.63 L396.4353,1117.82 L396.4353,1113.86 L386.4353,1103.86 L179.28,1103.86 A0,0 0 0 0 179.28,1103.86" fill="#FEFFDD" style="stroke:#181818;stroke-width:0.5;"/><path d="M386.4353,1103.86 L386.4353,1113.86 L396.4353,1113.86 L386.4353,1103.86" fill="#FEFFDD" style="stroke:#181818;stroke-width:0.5;"/><text fill="#000000" font-family="sans-serif" font-size="13" font-weight="bold" lengthAdjust="spacing" textLength="80.1392" x="185.28" y="1120.9269">&#1042;&#1082;&#1083;&#1102;&#1095;&#1072;&#1077;&#1090;:</text><text fill="#000000" font-family="sans-serif" font-size="13" lengthAdjust="spacing" textLength="129.7842" x="185.28" y="1136.0597">- &#1056;&#1072;&#1089;&#1095;&#1077;&#1090; &#1082;&#1086;&#1083;&#1080;&#1095;&#1077;&#1089;&#1090;&#1074;</text><text fill="#000000" font-family="sans-serif" font-size="13" lengthAdjust="spacing" textLength="196.1553" x="185.28" y="1151.1925">- &#1050;&#1086;&#1085;&#1089;&#1086;&#1083;&#1080;&#1076;&#1072;&#1094;&#1080;&#1102; &#1076;&#1091;&#1073;&#1083;&#1080;&#1082;&#1072;&#1090;&#1086;&#1074;</text><text fill="#000000" font-family="sans-serif" font-size="13" font-weight="bold" lengthAdjust="spacing" textLength="77.7271" x="185.28" y="1166.3253">&#1054;&#1087;&#1080;&#1089;&#1072;&#1085;&#1080;&#1077;:</text><text fill="#000000" font-family="sans-serif" font-size="13" lengthAdjust="spacing" textLength="169.3872" x="185.28" y="1181.4581">&#1044;&#1086;&#1073;&#1072;&#1074;&#1083;&#1103;&#1077;&#1090; &#1080;&#1085;&#1075;&#1088;&#1077;&#1076;&#1080;&#1077;&#1085;&#1090;&#1099;</text><text fill="#000000" font-family="sans-serif" font-size="13" lengthAdjust="spacing" textLength="180.5464" x="185.28" y="1196.591">&#1088;&#1077;&#1094;&#1077;&#1087;&#1090;&#1072; &#1074; &#1089;&#1087;&#1080;&#1089;&#1086;&#1082; &#1087;&#1086;&#1082;&#1091;&#1087;&#1086;&#1082;</text></g><g class="entity" data-entity="GMN50" data-source-line="77" data-uid="ent0051" id="entity_GMN50"><path d="M1005.4,111.43 L1005.4,197.0941 L1199.2911,197.0941 L1199.2911,121.43 L1189.2911,111.43 L1005.4,111.43" fill="#FEFFDD" style="stroke:#181818;stroke-width:0.5;"/><path d="M1189.2911,111.43 L1189.2911,121.43 L1199.2911,121.43 L1189.2911,111.43" fill="#FEFFDD" style="stroke:#181818;stroke-width:1;"/><text fill="#000000" font-family="sans-serif" font-size="13" font-weight="bold" lengthAdjust="spacing" textLength="72.2236" x="1011.4" y="128.4969">&#1060;&#1091;&#1085;&#1082;&#1094;&#1080;&#1080;:</text><text fill="#000000" font-family="sans-serif" font-size="13" lengthAdjust="spacing" textLength="160.9766" x="1011.4" y="143.6297">- &#1059;&#1084;&#1085;&#1086;&#1078;&#1072;&#1077;&#1090; &#1082;&#1086;&#1083;&#1080;&#1095;&#1077;&#1089;&#1090;&#1074;&#1072;</text><text fill="#000000" font-family="sans-serif" font-size="13" lengthAdjust="spacing" textLength="171.5835" x="1011.4" y="158.7625">- &#1050;&#1086;&#1085;&#1074;&#1077;&#1088;&#1090;&#1080;&#1088;&#1091;&#1077;&#1090; &#1077;&#1076;&#1080;&#1085;&#1080;&#1094;&#1099;</text><text fill="#000000" font-family="sans-serif" font-size="13" lengthAdjust="spacing" textLength="172.8911" x="1011.4" y="173.8953">- &#1057;&#1091;&#1084;&#1084;&#1080;&#1088;&#1091;&#1077;&#1090; &#1086;&#1076;&#1080;&#1085;&#1072;&#1082;&#1086;&#1074;&#1099;&#1077;</text><text fill="#000000" font-family="sans-serif" font-size="13" lengthAdjust="spacing" textLength="91.7998" x="1019.6646" y="189.0281">&#1080;&#1085;&#1075;&#1088;&#1077;&#1076;&#1080;&#1077;&#1085;&#1090;&#1099;</text></g><g class="entity" data-entity="GMN53" data-source-line="85" data-uid="ent0054" id="entity_GMN53"><path d="M986.02,6 L986.02,76.5313 L1218.6699,76.5313 L1218.6699,16 L1208.6699,6 L986.02,6" fill="#FEFFDD" style="stroke:#181818;stroke-width:0.5;"/><path d="M1208.6699,6 L1208.6699,16 L1218.6699,16 L1208.6699,6" fill="#FEFFDD" style="stroke:#181818;stroke-width:1;"/><text fill="#000000" font-family="sans-serif" font-size="13" font-weight="bold" lengthAdjust="spacing" textLength="97.2017" x="992.02" y="23.0669">&#1054;&#1073;&#1098;&#1077;&#1076;&#1080;&#1085;&#1103;&#1077;&#1090;:</text><text fill="#000000" font-family="sans-serif" font-size="13" lengthAdjust="spacing" textLength="190.6201" x="992.02" y="38.1997">- &#1054;&#1076;&#1080;&#1085;&#1072;&#1082;&#1086;&#1074;&#1099;&#1077; &#1080;&#1085;&#1075;&#1088;&#1077;&#1076;&#1080;&#1077;&#1085;&#1090;&#1099;</text><text fill="#000000" font-family="sans-serif" font-size="13" lengthAdjust="spacing" textLength="211.6499" x="992.02" y="53.3325">- &#1055;&#1088;&#1080;&#1074;&#1086;&#1076;&#1080;&#1090; &#1082; &#1086;&#1073;&#1097;&#1080;&#1084; &#1077;&#1076;&#1080;&#1085;&#1080;&#1094;&#1072;&#1084;</text><text fill="#000000" font-family="sans-serif" font-size="13" lengthAdjust="spacing" textLength="167.8955" x="992.02" y="68.4653">- &#1057;&#1091;&#1084;&#1084;&#1080;&#1088;&#1091;&#1077;&#1090; &#1082;&#1086;&#1083;&#1080;&#1095;&#1077;&#1089;&#1090;&#1074;&#1072;</text></g><!--link AddRecipe to ValidateData--><g class="link" data-entity-1="AddRecipe" data-entity-2="ValidateData" data-source-line="28" data-uid="lnk22" id="link_AddRecipe_ValidateData"><path d="M383.8,315.87 C446.56,325.53 522.5398,337.2277 585.1398,346.8577" fill="none" id="AddRecipe-to-ValidateData" style="stroke:#181818;stroke-width:1;"/><polygon fill="#181818" points="591.07,347.77,582.7828,342.4481,586.1281,347.0098,581.5665,350.3551,591.07,347.77" style="stroke:#181818;stroke-width:1;"/><text fill="#000000" font-family="sans-serif" font-size="13" lengthAdjust="spacing" textLength="47.0996" x="434.62" y="321.3269">include</text></g><!--link AddRecipe to UploadImages--><g class="link" data-entity-1="AddRecipe" data-entity-2="UploadImages" data-source-line="29" data-uid="lnk23" id="link_AddRecipe_UploadImages"><path d="M399.27,294.02 C452.19,290.55 509.5829,286.783 563.2029,283.263" fill="none" id="AddRecipe-to-UploadImages" style="stroke:#181818;stroke-width:1;"/><polygon fill="#181818" points="569.19,282.87,559.9473,279.4681,564.2007,283.1975,560.4714,287.451,569.19,282.87" style="stroke:#181818;stroke-width:1;"/><text fill="#000000" font-family="sans-serif" font-size="13" lengthAdjust="spacing" textLength="47.0996" x="434.62" y="285.3269">include</text></g><!--link EditRecipe to ValidateData--><g class="link" data-entity-1="EditRecipe" data-entity-2="ValidateData" data-source-line="30" data-uid="lnk24" id="link_EditRecipe_ValidateData"><path d="M393.75,470.99 C424.02,467.39 456.03,459.64 482.62,444.26 C501.55,433.32 494.32,417.24 512.62,405.26 C534.58,390.88 555.1691,382.7652 580.6491,376.3952" fill="none" id="EditRecipe-to-ValidateData" style="stroke:#181818;stroke-width:1;"/><polygon fill="#181818" points="586.47,374.94,576.7686,373.2423,581.6193,376.1527,578.7089,381.0034,586.47,374.94" style="stroke:#181818;stroke-width:1;"/><text fill="#000000" font-family="sans-serif" font-size="13" lengthAdjust="spacing" textLength="47.0996" x="434.62" y="440.3269">include</text></g><!--link EditRecipe to UploadImages--><g class="link" data-entity-1="EditRecipe" data-entity-2="UploadImages" data-source-line="31" data-uid="lnk25" id="link_EditRecipe_UploadImages"><path d="M334.39,448.85 C375.57,428.24 436.62,394.47 482.62,355.26 C498.47,341.75 495,330.37 512.62,319.26 C533.93,305.81 553.3699,298.0058 577.8799,291.5158" fill="none" id="EditRecipe-to-UploadImages" style="stroke:#181818;stroke-width:1;"/><polygon fill="#181818" points="583.68,289.98,573.956,288.417,578.8466,291.2598,576.0037,296.1505,583.68,289.98" style="stroke:#181818;stroke-width:1;"/><text fill="#000000" font-family="sans-serif" font-size="13" lengthAdjust="spacing" textLength="47.0996" x="434.62" y="351.3269">include</text></g><!--link EditRecipe to AutoSave--><g class="link" data-entity-1="EditRecipe" data-entity-2="AutoSave" data-source-line="32" data-uid="lnk26" id="link_EditRecipe_AutoSave"><path d="M357.96,488.16 C381.76,493.5 408.7,498.62 433.62,501.26 C455.27,503.55 461.12,504.75 482.62,501.26 C496.49,499.01 499.12,495.19 512.62,491.26 C543.01,482.42 570.9109,475.1917 600.4309,467.9917" fill="none" id="EditRecipe-to-AutoSave" style="stroke:#181818;stroke-width:1;"/><polygon fill="#181818" points="606.26,466.57,596.5685,464.8165,601.4024,467.7548,598.4641,472.5887,606.26,466.57" style="stroke:#181818;stroke-width:1;"/><text fill="#000000" font-family="sans-serif" font-size="13" lengthAdjust="spacing" textLength="47.0996" x="434.62" y="497.3269">include</text></g><!--link AddToShoppingList to CalculateQuantities--><g class="link" data-entity-1="AddToShoppingList" data-entity-2="CalculateQuantities" data-source-line="34" data-uid="lnk27" id="link_AddToShoppingList_CalculateQuantities"><path d="M858.84,1039.96 C885.63,1039.93 913,1039.45 938.86,1038.26 C952.44,1037.64 960.6575,1037.1776 974.7775,1036.0976" fill="none" id="AddToShoppingList-to-CalculateQuantities" style="stroke:#181818;stroke-width:1;"/><polygon fill="#181818" points="980.76,1035.64,971.4812,1032.338,975.7746,1036.0213,972.0913,1040.3147,980.76,1035.64" style="stroke:#181818;stroke-width:1;"/><text fill="#000000" font-family="sans-serif" font-size="13" lengthAdjust="spacing" textLength="47.0996" x="890.86" y="1034.3269">include</text></g><!--link AddToShoppingList to ConsolidateDuplicates--><g class="link" data-entity-1="AddToShoppingList" data-entity-2="ConsolidateDuplicates" data-source-line="35" data-uid="lnk28" id="link_AddToShoppingList_ConsolidateDuplicates"><path d="M794.15,1005.83 C869.04,985.21 961.1653,959.8529 1026.0953,941.9729" fill="none" id="AddToShoppingList-to-ConsolidateDuplicates" style="stroke:#181818;stroke-width:1;"/><polygon fill="#181818" points="1031.88,940.38,1022.141,938.913,1027.0594,941.7075,1024.2649,946.6259,1031.88,940.38" style="stroke:#181818;stroke-width:1;"/><text fill="#000000" font-family="sans-serif" font-size="13" lengthAdjust="spacing" textLength="47.0996" x="890.86" y="964.3269">include</text></g><!--link ManageShoppingList to ConsolidateDuplicates--><g class="link" data-entity-1="ManageShoppingList" data-entity-2="ConsolidateDuplicates" data-source-line="36" data-uid="lnk29" id="link_ManageShoppingList_ConsolidateDuplicates"><path d="M804.52,932.73 C863.83,930.44 929.3245,927.9117 987.2845,925.6717" fill="none" id="ManageShoppingList-to-ConsolidateDuplicates" style="stroke:#181818;stroke-width:1;"/><polygon fill="#181818" points="993.28,925.44,984.1322,921.7906,988.2837,925.6331,984.4412,929.7846,993.28,925.44" style="stroke:#181818;stroke-width:1;"/><text fill="#000000" font-family="sans-serif" font-size="13" lengthAdjust="spacing" textLength="47.0996" x="890.86" y="924.3269">include</text></g><!--link ViewRecipes to SearchRecipes--><g class="link" data-entity-1="ViewRecipes" data-entity-2="SearchRecipes" data-source-line="39" data-uid="lnk30" id="link_ViewRecipes_SearchRecipes"><path d="M361.31,699.32 C376.3,693.23 391.26,685.36 403.62,675.26 C423.09,659.34 417.09,646.23 433.62,627.26 C463.67,592.77 471.38,581.08 512.62,561.26 C544.59,545.9 577.0955,538.1543 609.5755,533.3143" fill="none" id="ViewRecipes-to-SearchRecipes" style="stroke:#181818;stroke-width:1;stroke-dasharray:7,7;"/><polygon fill="#181818" points="615.51,532.43,606.0187,529.8002,610.5646,533.1669,607.1978,537.7128,615.51,532.43" style="stroke:#181818;stroke-width:1;"/><text fill="#000000" font-family="sans-serif" font-size="13" lengthAdjust="spacing" textLength="45.2778" x="435.62" y="575.3269">extend</text></g><!--link ViewRecipes to FilterByCategory--><g class="link" data-entity-1="ViewRecipes" data-entity-2="FilterByCategory" data-source-line="40" data-uid="lnk31" id="link_ViewRecipes_FilterByCategory"><path d="M345.92,739.71 C364.38,746.76 384.91,754.73 403.62,762.26 C452.39,781.9 462.73,791.63 512.62,808.26 C542.06,818.08 569.1555,825.4104 598.2955,832.4004" fill="none" id="ViewRecipes-to-FilterByCategory" style="stroke:#181818;stroke-width:1;stroke-dasharray:7,7;"/><polygon fill="#181818" points="604.13,833.8,596.3113,827.811,599.2679,832.6337,594.4452,835.5903,604.13,833.8" style="stroke:#181818;stroke-width:1;"/><text fill="#000000" font-family="sans-serif" font-size="13" lengthAdjust="spacing" textLength="45.2778" x="435.62" y="772.3269">extend</text></g><!--link ViewRecipes to FilterByIngredients--><g class="link" data-entity-1="ViewRecipes" data-entity-2="FilterByIngredients" data-source-line="41" data-uid="lnk32" id="link_ViewRecipes_FilterByIngredients"><path d="M387.6,729.72 C445.27,736.41 512.1399,744.1791 571.3199,751.0391" fill="none" id="ViewRecipes-to-FilterByIngredients" style="stroke:#181818;stroke-width:1;stroke-dasharray:7,7;"/><polygon fill="#181818" points="577.28,751.73,568.8004,746.7203,572.3133,751.1543,567.8793,754.6671,577.28,751.73" style="stroke:#181818;stroke-width:1;"/><text fill="#000000" font-family="sans-serif" font-size="13" lengthAdjust="spacing" textLength="45.2778" x="435.62" y="732.3269">extend</text></g><!--link ViewRecipes to SortRecipes--><g class="link" data-entity-1="ViewRecipes" data-entity-2="SortRecipes" data-source-line="42" data-uid="lnk33" id="link_ViewRecipes_SortRecipes"><path d="M391.45,708.69 C455.91,702.67 532.136,695.5578 593.186,689.8578" fill="none" id="ViewRecipes-to-SortRecipes" style="stroke:#181818;stroke-width:1;stroke-dasharray:7,7;"/><polygon fill="#181818" points="599.16,689.3,589.8271,686.154,594.1817,689.7648,590.5708,694.1193,599.16,689.3" style="stroke:#181818;stroke-width:1;"/><text fill="#000000" font-family="sans-serif" font-size="13" lengthAdjust="spacing" textLength="45.2778" x="435.62" y="697.3269">extend</text></g><!--link ViewRecipes to AddToFavorites--><g class="link" data-entity-1="ViewRecipes" data-entity-2="AddToFavorites" data-source-line="43" data-uid="lnk34" id="link_ViewRecipes_AddToFavorites"><path d="M346.31,696.98 C391.22,680.78 455.4,658.56 512.62,642.26 C543.98,633.33 573.105,626.2412 603.335,619.4712" fill="none" id="ViewRecipes-to-AddToFavorites" style="stroke:#181818;stroke-width:1;stroke-dasharray:7,7;"/><polygon fill="#181818" points="609.19,618.16,599.5334,616.2235,604.3109,619.2527,601.2817,624.0301,609.19,618.16" style="stroke:#181818;stroke-width:1;"/><text fill="#000000" font-family="sans-serif" font-size="13" lengthAdjust="spacing" textLength="45.2778" x="435.62" y="648.3269">extend</text></g><!--link ViewRecipeDetails to AddToShoppingList--><g class="link" data-entity-1="ViewRecipeDetails" data-entity-2="AddToShoppingList" data-source-line="45" data-uid="lnk35" id="link_ViewRecipeDetails_AddToShoppingList"><path d="M339.44,910.83 C384.46,930.54 452.32,959.35 512.62,981.26 C535.34,989.52 554.2888,995.8924 577.6788,1003.2824" fill="none" id="ViewRecipeDetails-to-AddToShoppingList" style="stroke:#181818;stroke-width:1;stroke-dasharray:7,7;"/><polygon fill="#181818" points="583.4,1005.09,576.0232,998.5644,578.6323,1003.5837,573.6131,1006.1927,583.4,1005.09" style="stroke:#181818;stroke-width:1;"/><text fill="#000000" font-family="sans-serif" font-size="13" lengthAdjust="spacing" textLength="45.2778" x="435.62" y="949.3269">extend</text></g><!--link ViewShoppingList to ManageShoppingList--><g class="link" data-entity-1="ViewShoppingList" data-entity-2="ManageShoppingList" data-source-line="46" data-uid="lnk36" id="link_ViewShoppingList_ManageShoppingList"><path d="M345.39,823.82 C364.01,830.76 384.77,838.67 403.62,846.26 C452.55,865.97 462.68,876.25 512.62,893.26 C540.87,902.89 566.526,910.0674 594.786,917.0674" fill="none" id="ViewShoppingList-to-ManageShoppingList" style="stroke:#181818;stroke-width:1;stroke-dasharray:7,7;"/><polygon fill="#181818" points="600.61,918.51,592.8357,912.4634,595.7567,917.3078,590.9123,920.2288,600.61,918.51" style="stroke:#181818;stroke-width:1;"/><text fill="#000000" font-family="sans-serif" font-size="13" lengthAdjust="spacing" textLength="45.2778" x="435.62" y="856.3269">extend</text></g><!--link User to AddRecipe--><g class="link" data-entity-1="User" data-entity-2="AddRecipe" data-source-line="50" data-uid="lnk37" id="link_User_AddRecipe"><path d="M65.3,671.57 C75.61,611.68 99.45,506.33 148.1,429.26 C174.95,386.72 214.6702,352.7534 246.0302,329.5034" fill="none" id="User-to-AddRecipe" style="stroke:#181818;stroke-width:1;"/><polygon fill="#181818" points="250.85,325.93,241.238,328.0768,246.8335,328.9078,246.0025,334.5033,250.85,325.93" style="stroke:#181818;stroke-width:1;"/></g><!--link User to EditRecipe--><g class="link" data-entity-1="User" data-entity-2="EditRecipe" data-source-line="51" data-uid="lnk38" id="link_User_EditRecipe"><path d="M92.38,671.69 C108.55,650.27 128.6,624.87 148.1,603.26 C184.98,562.38 227.4982,522.9504 256.2382,497.2404" fill="none" id="User-to-EditRecipe" style="stroke:#181818;stroke-width:1;"/><polygon fill="#181818" points="260.71,493.24,251.3354,496.2593,256.9835,496.5736,256.6692,502.2217,260.71,493.24" style="stroke:#181818;stroke-width:1;"/></g><!--link User to DeleteRecipe--><g class="link" data-entity-1="User" data-entity-2="DeleteRecipe" data-source-line="52" data-uid="lnk39" id="link_User_DeleteRecipe"><path d="M109.5,692.46 C121.95,686.69 135.35,680.91 148.1,676.26 C173.63,666.95 196.7605,660.3307 221.5805,654.1007" fill="none" id="User-to-DeleteRecipe" style="stroke:#181818;stroke-width:1;"/><polygon fill="#181818" points="227.4,652.64,217.697,650.9514,222.5504,653.8573,219.6446,658.7107,227.4,652.64" style="stroke:#181818;stroke-width:1;"/></g><!--link User to ViewRecipes--><g class="link" data-entity-1="User" data-entity-2="ViewRecipes" data-source-line="53" data-uid="lnk40" id="link_User_ViewRecipes"><path d="M109.5,718.26 C129.35,718.26 146.91,718.26 170.28,718.26" fill="none" id="User-to-ViewRecipes" style="stroke:#181818;stroke-width:1;"/><polygon fill="#181818" points="176.28,718.26,167.28,714.26,171.28,718.26,167.28,722.26,176.28,718.26" style="stroke:#181818;stroke-width:1;"/></g><!--link User to ViewRecipeDetails--><g class="link" data-entity-1="User" data-entity-2="ViewRecipeDetails" data-source-line="54" data-uid="lnk41" id="link_User_ViewRecipeDetails"><path d="M81.79,764.85 C97.26,791.54 119.91,823.71 148.1,844.26 C164.44,856.17 178.4155,863.0497 197.7555,869.4697" fill="none" id="User-to-ViewRecipeDetails" style="stroke:#181818;stroke-width:1;"/><polygon fill="#181818" points="203.45,871.36,196.1685,864.7283,198.7046,869.7848,193.6481,872.3209,203.45,871.36" style="stroke:#181818;stroke-width:1;"/></g><!--link User to ViewShoppingList--><g class="link" data-entity-1="User" data-entity-2="ViewShoppingList" data-source-line="55" data-uid="lnk42" id="link_User_ViewShoppingList"><path d="M109.17,743.49 C121.74,749.34 135.29,755.3 148.1,760.26 C171.03,769.14 190.8779,775.7598 213.7779,782.6998" fill="none" id="User-to-ViewShoppingList" style="stroke:#181818;stroke-width:1;"/><polygon fill="#181818" points="219.52,784.44,212.067,778.0017,214.7349,782.9898,209.7467,785.6578,219.52,784.44" style="stroke:#181818;stroke-width:1;"/></g><!--link User to AddToShoppingList--><g class="link" data-entity-1="User" data-entity-2="AddToShoppingList" data-source-line="56" data-uid="lnk43" id="link_User_AddToShoppingList"><path d="M59.53,764.99 C63.01,878.56 78.62,1164.04 148.1,1222.26 C302.3,1351.48 546.8228,1160.5443 642.0428,1075.5943" fill="none" id="User-to-AddToShoppingList" style="stroke:#181818;stroke-width:1;"/><polygon fill="#181818" points="646.52,1071.6,637.1413,1074.6067,642.789,1074.9286,642.4671,1080.5763,646.52,1071.6" style="stroke:#181818;stroke-width:1;"/></g><!--link CalculateQuantities to GMN50--><g class="link" data-entity-1="CalculateQuantities" data-entity-2="GMN50" data-source-line="77" data-uid="lnk52" id="link_CalculateQuantities_GMN50"><path d="M999.38,1004.51 C966.65,993.16 933.9,974.95 914.36,945.76 C871.34,881.5 873.91,315.68 914.36,249.76 C934.65,216.69 970.37,194.63 1005.26,180.14" fill="none" id="CalculateQuantities-GMN50" style="stroke:#181818;stroke-width:1;stroke-dasharray:7,7;"/></g><!--link GMN53 to ConsolidateDuplicates--><g class="link" data-entity-1="GMN53" data-entity-2="ConsolidateDuplicates" data-source-line="85" data-uid="lnk55" id="link_GMN53_ConsolidateDuplicates"><path d="M985.85,60.83 C957.94,71.27 931.33,87.27 914.36,111.76 C821.4,245.91 1039.58,775.23 1091.55,896.44" fill="none" id="GMN53-ConsolidateDuplicates" style="stroke:#181818;stroke-width:1;stroke-dasharray:7,7;"/></g><!--SRC=[ZLPjQnj74Fv-lsBnboG6vmU4O4ZZ10mjj7NJxrTf8nzSxiHfbJQKWXKtwKk2MqeXa0zEWlC393bAJzQB_yBkF-epiwVJxMabc-28svrvPkQPsPc9vMCbL2gog7MeH3FAP4D5QH84OKEbcTZIx_HSJynh_Hz-XxfldkiHVM-9i2CUTMGcxjxzMcQTDDdT3GBI3fDMBA5uQexqkUxh6Vx6K1-P8u6ZaNa9X4lW06zB_1m8SLF_Yuy1v8PwWikPplL8u8SipW4oTnNxjyZulMRpMzc8sf8HtkFk4n0kS9z3cfqja3pA3vgHgcYViUxIjaTZJyPIoOhEEx9YUdgA_vzJR3rz2TCzVQ7xAu4onFUH_D42TBm8S694zjYHiS-99SAUL64K4mv3_SDQEOK1bTpy9JYYcPwPL-Q55ogCesQev5weGePu0_bpSsIEaIiA0MYKym5q-_fpGSrO84yJSqBe3FEe7QTXS_z9s2g2-biFAMI4DJSlM7UsJ2b1JlcpWBEPxAhq87nQq0gRpAAVmmCPPet3AeiVWOE290QNmL-YPYWABbSK4EvmhgUCyJ2AbSo-U7OVuRVIxDaLC3bSFITd47HEZdEENAZzf9N9PYGJPPtwG2OhfRYs9WxIJ5MZyRw4eMLkKD193sEqU0FVfG_3fsaMALaMWnV35yMSa8VBofs3TOePh-ZO_Ywj71ocxNQKjBwCEkhg-lUWKEskW9o1ZAEQgnMWkPxweBuA4zJR2jXx9AvdVgD795WPBu8_UuXrQ4lQImA3tW_ZHZT6INpJ3HCLgQZ8o5j8p9YS-WE3JmC-j8LM0gL99oqULxSTHusmpCqDiPyqucvJYap251fjvp1gTyHDZda29d-d5qlvch2pkSx1Xw08sEq9npM-1Qoo_ucTdLtdEOix8h9cLiIgpzKHMpR4pN0rkUlYBPwu8sEzSqkBfJsfgCVaq_BnxkYjriqr5Jbr3tvICcdMCuS2FaQY5dF7apqQNvxyLQQ1k7rxr-rii2xPd4Umthwk8rlfJvl4AzreavZRTggIZd0nevOg3lCrVEUED3p9AbL-2O8RuXvlA8qqIUpEqWbu7-5oAtU3ygWoySipPwQNfzKnxJbSJ5xdokb5LJTgZJD8KYMBPIjzxEmmszkOuXSqND6p-jJ4xcnlutn7h4pt4sUwMnbdV9lZDUFRsZaj6con85axDBEWygbScpOiO117L-AEF66nCVTMyojFsgbravQOW5uCnLn47jEwQGDV6IaR2DZSsQsClq-VUFlq9XegqnCR0rlqZ0tpYZXmIBbYbDQf-25LAdr2PFWd3npyMBGM8ZCloJW3mSJvPqkITzHLAC7dQB6B08yrR228shpaG23x0NTJ_Aj8pGkfFbiOKcU3h5Z7Hoq-bROvk3NJaFaVc3yNlbYkoo1FLsslpmFaQHl9kLfnnQG8hlu_S3fr0gRTRMt8FYeNSVqF]--></g></svg>